<?xml version="1.0" standalone="no"?>
<!DOCTYPE svg PUBLIC "-//W3C//DTD SVG 20010904//EN"
 "http://www.w3.org/TR/2001/REC-SVG-20010904/DTD/svg10.dtd">
<svg version="1.0" xmlns="http://www.w3.org/2000/svg"
 width="845.000000pt" height="563.000000pt" viewBox="0 0 845.000000 563.000000"
 preserveAspectRatio="xMidYMid meet">

<g transform="translate(0.000000,563.000000) scale(0.100000,-0.100000)"
fill="#000000" stroke="none">
<path d="M2910 4140 c0 -5 9 -10 20 -10 18 0 20 -7 20 -60 0 -33 4 -60 10 -60
6 0 10 27 10 60 0 57 1 60 25 60 14 0 25 5 25 10 0 6 -25 10 -55 10 -30 0 -55
-4 -55 -10z"/>
<path d="M3050 4080 c0 -40 4 -70 10 -70 6 0 10 14 10 30 0 28 2 30 39 30 37
0 40 -2 44 -32 2 -18 4 1 4 42 0 41 -2 60 -4 43 -4 -31 -7 -33 -44 -33 -37 0
-39 2 -39 30 0 17 -4 30 -10 30 -6 0 -10 -30 -10 -70z"/>
<path d="M3200 4080 c0 -40 4 -70 10 -70 6 0 10 30 10 70 0 40 -4 70 -10 70
-6 0 -10 -30 -10 -70z"/>
<path d="M3273 4143 c-7 -2 -13 -15 -13 -28 0 -19 9 -26 43 -37 23 -8 43 -22
45 -30 4 -22 -32 -28 -64 -12 -32 17 -47 8 -20 -12 41 -29 112 -8 105 32 -3
12 -19 24 -47 32 -43 14 -55 35 -26 46 8 3 25 1 36 -5 23 -12 39 -2 18 11 -16
10 -57 12 -77 3z"/>
<path d="M3450 4080 c0 -40 4 -70 10 -70 6 0 10 30 10 70 0 40 -4 70 -10 70
-6 0 -10 -30 -10 -70z"/>
<path d="M3523 4143 c-7 -2 -13 -15 -13 -28 0 -19 9 -26 43 -37 23 -8 43 -22
45 -30 4 -22 -32 -28 -64 -12 -32 17 -47 8 -20 -12 41 -29 112 -8 105 32 -3
12 -19 24 -47 32 -43 14 -55 35 -26 46 8 3 25 1 36 -5 23 -12 39 -2 18 11 -16
10 -57 12 -77 3z"/>
<path d="M3690 4140 c0 -5 9 -10 20 -10 18 0 20 -7 20 -60 0 -33 4 -60 10 -60
6 0 10 27 10 60 0 57 1 60 25 60 14 0 25 5 25 10 0 6 -25 10 -55 10 -30 0 -55
-4 -55 -10z"/>
<path d="M3840 4130 c-42 -42 -12 -120 48 -120 46 0 72 25 72 70 0 29 -6 43
-22 54 -31 22 -74 20 -98 -4z m88 -12 c7 -7 12 -24 12 -38 0 -14 -5 -31 -12
-38 -7 -7 -24 -12 -38 -12 -14 0 -31 5 -38 12 -7 7 -12 24 -12 38 0 14 5 31
12 38 7 7 24 12 38 12 14 0 31 -5 38 -12z"/>
<path d="M4060 4130 c-43 -43 -11 -120 48 -120 31 0 71 24 59 36 -4 4 -13 2
-19 -4 -7 -7 -25 -12 -40 -12 -37 0 -57 38 -40 75 13 27 58 35 80 13 6 -6 15
-8 19 -4 12 12 -28 36 -59 36 -15 0 -37 -9 -48 -20z"/>
<path d="M4190 4080 l0 -70 55 0 c30 0 55 5 55 10 0 6 -20 10 -45 10 -38 0
-45 3 -45 20 0 17 7 20 40 20 22 0 40 5 40 10 0 6 -18 10 -40 10 -33 0 -40 3
-40 20 0 17 7 20 39 20 22 0 43 5 46 10 4 6 -15 10 -49 10 l-56 0 0 -70z"/>
<path d="M4330 4080 c0 -40 4 -70 10 -70 6 0 10 14 10 30 0 42 38 42 62 0 9
-17 22 -30 28 -30 7 0 4 12 -6 29 -16 27 -16 30 -1 46 21 20 21 29 1 49 -9 10
-33 16 -60 16 l-44 0 0 -70z m95 30 c0 -10 -12 -16 -37 -18 -33 -3 -38 0 -38
18 0 18 5 21 38 18 25 -2 37 -8 37 -18z"/>
<path d="M4470 4140 c0 -5 9 -10 20 -10 18 0 20 -7 20 -60 0 -33 4 -60 10 -60
6 0 10 27 10 60 0 57 1 60 25 60 14 0 25 5 25 10 0 6 -25 10 -55 10 -30 0 -55
-4 -55 -10z"/>
<path d="M4610 4080 c0 -40 4 -70 10 -70 6 0 10 30 10 70 0 40 -4 70 -10 70
-6 0 -10 -30 -10 -70z"/>
<path d="M4670 4080 c0 -40 4 -70 10 -70 6 0 10 11 10 25 0 22 4 25 34 25 19
0 38 5 41 10 4 6 -10 10 -34 10 -37 0 -41 2 -41 25 0 23 4 25 40 25 22 0 40 5
40 10 0 6 -22 10 -50 10 l-50 0 0 -70z"/>
<path d="M4796 4138 c4 -7 16 -25 26 -40 10 -14 18 -40 18 -57 0 -17 5 -31 10
-31 6 0 10 14 10 31 0 17 11 45 25 63 27 35 30 46 16 46 -6 0 -18 -13 -28 -30
-9 -16 -20 -30 -23 -30 -3 0 -14 14 -23 30 -10 17 -23 30 -28 30 -6 0 -7 -6
-3 -12z"/>
<path d="M4980 4140 c0 -5 9 -10 20 -10 18 0 20 -7 20 -60 0 -33 4 -60 10 -60
6 0 10 27 10 60 0 57 1 60 25 60 14 0 25 5 25 10 0 6 -25 10 -55 10 -30 0 -55
-4 -55 -10z"/>
<path d="M5110 4080 c0 -40 4 -70 10 -70 6 0 10 14 10 30 0 28 2 30 39 30 37
0 40 -2 44 -32 2 -18 4 1 4 42 0 41 -2 60 -4 43 -4 -31 -7 -33 -44 -33 -37 0
-39 2 -39 30 0 17 -4 30 -10 30 -6 0 -10 -30 -10 -70z"/>
<path d="M5291 4128 c-5 -13 -18 -44 -30 -70 -20 -46 -13 -68 9 -28 15 28 63
27 83 -2 27 -41 26 -14 -2 51 -30 71 -46 85 -60 49z m36 -38 c11 -28 10 -30
-13 -30 -26 0 -27 3 -18 38 8 30 17 28 31 -8z"/>
<path d="M5390 4140 c0 -5 9 -10 20 -10 18 0 20 -7 20 -60 0 -33 4 -60 10 -60
6 0 10 27 10 60 0 57 1 60 25 60 14 0 25 5 25 10 0 6 -25 10 -55 10 -30 0 -55
-4 -55 -10z"/>
<path d="M3037 3533 c645 -2 1701 -2 2345 0 645 1 118 2 -1172 2 -1290 0
-1817 -1 -1173 -2z"/>
<path d="M853 3080 c0 -36 2 -50 4 -32 2 17 2 47 0 65 -2 17 -4 3 -4 -33z"/>
<path d="M1028 3133 c20 -4 22 -10 22 -59 0 -30 5 -54 10 -54 6 0 10 24 10 54
0 49 2 55 23 59 12 2 -3 4 -33 4 -30 0 -45 -2 -32 -4z"/>
<path d="M1120 3080 c0 -66 17 -83 22 -22 4 52 31 50 39 -3 l7 -40 -2 45 c-1
40 -4 45 -23 44 -16 0 -23 5 -23 18 0 10 -4 18 -10 18 -6 0 -10 -27 -10 -60z"/>
<path d="M1377 3122 c-33 -37 -9 -102 37 -102 38 0 56 19 56 60 0 29 -5 42
-19 50 -29 15 -56 12 -74 -8z m67 -8 c20 -20 20 -48 0 -68 -27 -27 -51 -18
-67 25 -7 20 18 59 38 59 7 0 21 -7 29 -16z"/>
<path d="M1937 3122 c-33 -37 -9 -102 37 -102 38 0 56 19 56 60 0 29 -5 42
-19 50 -29 15 -56 12 -74 -8z m67 -8 c20 -20 20 -48 0 -68 -27 -27 -51 -18
-67 25 -7 20 18 59 38 59 7 0 21 -7 29 -16z"/>
<path d="M2060 3125 c0 -8 -6 -15 -12 -15 -10 0 -10 -2 -1 -8 6 -4 13 -25 16
-47 l4 -40 1 43 c1 26 7 42 15 42 8 0 7 4 -3 10 -13 9 -13 11 0 20 13 8 12 10
-2 10 -10 0 -18 -7 -18 -15z"/>
<path d="M4231 3126 c-17 -20 -7 -33 35 -51 19 -8 34 -19 34 -25 0 -17 -31
-24 -51 -12 -26 16 -34 15 -19 -3 17 -21 67 -19 79 3 13 24 1 41 -34 50 -16 5
-30 13 -33 20 -6 18 28 27 50 13 16 -10 19 -10 16 1 -7 19 -62 22 -77 4z"/>
<path d="M4330 3080 c0 -66 17 -83 22 -22 4 52 31 50 39 -3 l7 -40 -2 45 c-1
40 -4 45 -23 44 -16 0 -23 5 -23 18 0 10 -4 18 -10 18 -6 0 -10 -27 -10 -60z"/>
<path d="M4827 3122 c-33 -37 -9 -102 37 -102 38 0 56 19 56 60 0 29 -5 42
-19 50 -29 15 -56 12 -74 -8z m67 -8 c9 -8 16 -24 16 -34 0 -21 -25 -50 -44
-50 -31 0 -50 50 -30 79 18 25 37 27 58 5z"/>
<path d="M4950 3125 c0 -8 -6 -15 -12 -15 -10 0 -10 -2 -1 -8 6 -4 13 -25 16
-47 l4 -40 1 43 c1 26 7 42 15 42 8 0 7 4 -3 10 -13 9 -13 11 0 20 13 8 12 10
-2 10 -10 0 -18 -7 -18 -15z"/>
<path d="M5051 3126 c-17 -20 -7 -33 35 -51 19 -8 34 -19 34 -25 0 -17 -31
-24 -51 -12 -26 16 -34 15 -19 -3 17 -21 67 -19 79 3 13 24 1 41 -34 50 -16 5
-30 13 -33 20 -6 18 28 27 50 13 16 -10 19 -10 16 1 -7 19 -62 22 -77 4z"/>
<path d="M5390 3080 c0 -33 4 -60 10 -60 6 0 10 10 10 23 l1 22 18 -22 c26
-31 37 -29 16 3 -16 24 -16 27 1 45 21 23 8 25 -18 2 -17 -15 -18 -14 -18 15
0 18 -4 32 -10 32 -6 0 -10 -27 -10 -60z"/>
<path d="M5537 3122 c-33 -37 -9 -102 37 -102 38 0 56 19 56 60 0 29 -5 42
-19 50 -29 15 -56 12 -74 -8z m67 -8 c9 -8 16 -24 16 -34 0 -21 -25 -50 -44
-50 -31 0 -50 50 -30 79 18 25 37 27 58 5z"/>
<path d="M5660 3125 c0 -8 -6 -15 -12 -15 -10 0 -10 -2 -1 -8 6 -4 13 -25 16
-47 l4 -40 1 43 c1 26 7 42 15 42 8 0 7 4 -3 10 -13 9 -13 11 0 20 13 8 12 10
-2 10 -10 0 -18 -7 -18 -15z"/>
<path d="M5155 3116 c-5 -6 -8 -29 -5 -51 4 -30 10 -41 25 -43 14 -2 16 -1 7
6 -8 5 -12 25 -11 50 3 46 -1 56 -16 38z"/>
<path d="M887 3103 c-15 -14 -6 -33 18 -39 14 -3 25 -13 25 -21 0 -12 -7 -14
-27 -8 -21 5 -25 4 -17 -5 17 -17 58 -8 62 13 3 12 -6 21 -27 28 -36 13 -31
34 6 24 16 -4 22 -2 18 5 -7 11 -48 14 -58 3z"/>
<path d="M1222 3098 c-15 -15 -15 -51 0 -66 15 -15 45 -16 53 -2 4 7 -2 9 -18
5 -17 -5 -26 -2 -30 9 -5 13 1 16 28 16 38 0 40 2 25 31 -12 21 -40 25 -58 7z
m46 -15 c2 -8 -6 -13 -22 -13 -19 0 -24 4 -19 15 6 18 34 16 41 -2z"/>
<path d="M1485 3093 c3 -10 9 -30 12 -45 6 -30 21 -37 28 -13 16 49 17 50 27
18 12 -44 25 -41 38 8 14 50 7 62 -10 17 l-12 -33 -9 33 c-12 42 -25 41 -36
-5 l-10 -38 -8 38 c-4 20 -12 37 -17 37 -6 0 -7 -8 -3 -17z"/>
<path d="M1620 3064 c0 -54 18 -59 22 -6 4 52 31 50 39 -3 l7 -40 -2 45 c-1
43 -2 45 -33 47 -33 1 -33 1 -33 -43z"/>
<path d="M1722 3098 c-27 -27 -7 -78 29 -78 10 0 21 5 24 10 4 7 -2 9 -18 5
-17 -5 -26 -2 -30 9 -5 13 1 16 28 16 38 0 40 2 25 31 -12 21 -40 25 -58 7z
m46 -15 c2 -8 -6 -13 -22 -13 -19 0 -24 4 -19 15 6 18 34 16 41 -2z"/>
<path d="M1800 3065 c0 -25 5 -45 10 -45 6 0 10 15 10 33 0 18 5 38 12 45 9 9
7 12 -10 12 -19 0 -22 -5 -22 -45z"/>
<path d="M4435 3100 c-5 -9 -1 -10 14 -5 11 3 26 3 33 -2 9 -5 3 -9 -17 -13
-24 -4 -30 -10 -30 -30 0 -22 5 -25 35 -26 l36 -1 -6 41 c-4 35 -9 41 -32 44
-14 2 -29 -2 -33 -8z m55 -39 c0 -5 -7 -14 -15 -21 -18 -15 -42 1 -31 19 8 13
46 15 46 2z"/>
<path d="M4520 3065 c0 -25 5 -45 10 -45 6 0 10 15 10 33 0 18 5 38 12 45 9 9
7 12 -10 12 -19 0 -22 -5 -22 -45z"/>
<path d="M4592 3098 c-27 -27 -7 -78 29 -78 10 0 21 5 24 10 4 7 -2 9 -18 5
-17 -5 -26 -2 -30 9 -5 13 1 16 28 16 38 0 40 2 25 31 -12 21 -40 25 -58 7z
m46 -15 c2 -8 -6 -13 -22 -13 -19 0 -24 4 -19 15 6 18 34 16 41 -2z"/>
<path d="M4677 3103 c-15 -14 -6 -33 18 -39 14 -3 25 -13 25 -21 0 -12 -7 -14
-27 -8 -21 5 -25 4 -17 -5 17 -17 58 -8 62 13 3 12 -6 21 -27 28 -36 13 -31
34 6 24 16 -4 22 -2 18 5 -7 11 -48 14 -58 3z"/>
<path d="M5222 3098 c-29 -29 -3 -84 35 -76 25 5 40 52 23 72 -15 19 -41 21
-58 4z m43 -33 c0 -33 -28 -47 -39 -19 -10 25 3 56 22 52 11 -2 17 -13 17 -33z"/>
<path d="M5312 3098 c-16 -16 -15 -53 3 -68 17 -14 47 -10 53 8 3 11 1 11 -17
0 -18 -11 -23 -11 -31 2 -5 8 -10 20 -10 25 0 6 5 17 10 25 8 13 13 13 31 2
18 -11 20 -11 17 0 -6 18 -40 22 -56 6z"/>
<path d="M2508 2533 c925 -2 2439 -2 3365 0 925 1 168 2 -1683 2 -1851 0
-2608 -1 -1682 -2z"/>
<path d="M847 2172 c-33 -37 -9 -102 37 -102 38 0 56 19 56 60 0 29 -5 42 -19
50 -29 15 -56 12 -74 -8z m67 -8 c9 -8 16 -24 16 -34 0 -21 -25 -50 -44 -50
-31 0 -50 50 -30 79 18 25 37 27 58 5z"/>
<path d="M1160 2130 c0 -66 17 -83 22 -22 4 52 31 50 39 -3 l7 -40 -2 45 c-1
40 -4 45 -23 44 -16 0 -23 5 -23 18 0 10 -4 18 -10 18 -6 0 -10 -27 -10 -60z"/>
<path d="M3140 2130 l0 -60 31 0 c51 0 69 16 69 60 0 44 -18 60 -69 60 l-31 0
0 -60z m74 34 c31 -30 9 -84 -35 -84 -16 0 -19 7 -19 50 0 43 3 50 19 50 11 0
27 -7 35 -16z"/>
<path d="M3590 2175 c0 -8 -6 -15 -12 -15 -10 0 -10 -2 -1 -8 6 -4 13 -25 16
-47 l4 -40 1 43 c1 26 7 42 15 42 8 0 7 4 -3 10 -13 9 -13 11 0 20 13 8 12 10
-2 10 -10 0 -18 -7 -18 -15z"/>
<path d="M5083 2130 c0 -36 2 -50 4 -32 2 17 2 47 0 65 -2 17 -4 3 -4 -33z"/>
<path d="M5320 2130 c0 -66 17 -83 22 -22 4 52 31 50 39 -3 l7 -40 -2 45 c-1
40 -4 45 -23 44 -16 0 -23 5 -23 18 0 10 -4 18 -10 18 -6 0 -10 -27 -10 -60z"/>
<path d="M5551 2185 c0 -5 8 -21 19 -35 11 -14 20 -38 21 -55 l1 -30 8 31 c4
18 17 46 29 63 12 17 18 31 13 31 -5 0 -17 -12 -27 -26 l-17 -27 -24 29 c-13
16 -23 25 -23 19z"/>
<path d="M1115 2166 c-5 -6 -8 -29 -5 -51 4 -30 10 -41 25 -43 14 -2 16 -1 7
6 -8 5 -12 25 -11 50 3 46 -1 56 -16 38z"/>
<path d="M5275 2166 c-5 -6 -8 -29 -5 -51 4 -30 10 -41 25 -43 14 -2 16 -1 7
6 -8 5 -12 25 -11 50 3 46 -1 56 -16 38z"/>
<path d="M970 2114 c0 -54 18 -59 22 -6 4 52 31 50 39 -3 l7 -40 -2 45 c-1 43
-2 45 -33 47 -33 1 -33 1 -33 -43z"/>
<path d="M1262 2148 c-15 -15 -15 -51 0 -66 15 -15 45 -16 53 -2 4 7 -2 9 -18
5 -17 -5 -26 -2 -30 9 -5 13 1 16 28 16 38 0 40 2 25 31 -12 21 -40 25 -58 7z
m46 -15 c2 -8 -6 -13 -22 -13 -19 0 -24 4 -19 15 6 18 34 16 41 -2z"/>
<path d="M3265 2150 c-5 -9 -1 -10 14 -5 11 3 26 3 33 -2 9 -5 3 -9 -17 -13
-24 -4 -30 -10 -30 -30 0 -22 5 -25 35 -26 l36 -1 -6 41 c-4 35 -9 41 -32 44
-14 2 -29 -2 -33 -8z m55 -39 c0 -5 -7 -14 -15 -21 -18 -15 -42 1 -31 19 8 13
46 15 46 2z"/>
<path d="M3359 2116 c18 -41 18 -45 3 -61 -14 -14 -14 -17 -2 -13 17 5 63 94
57 111 -2 7 -11 -4 -20 -23 l-15 -35 -12 33 c-7 17 -16 32 -21 32 -4 0 0 -20
10 -44z"/>
<path d="M3502 2148 c-29 -29 -3 -84 35 -76 25 5 40 52 23 72 -15 19 -41 21
-58 4z m43 -33 c0 -33 -28 -47 -39 -19 -10 25 3 56 22 52 11 -2 17 -13 17 -33z"/>
<path d="M5120 2114 c0 -54 18 -59 22 -6 4 52 31 50 39 -3 l7 -40 -2 45 c-1
43 -2 45 -33 47 -33 1 -33 1 -33 -43z"/>
<path d="M5422 2148 c-27 -27 -7 -78 29 -78 10 0 21 5 24 10 4 7 -2 9 -18 5
-17 -5 -26 -2 -30 9 -5 13 1 16 28 16 38 0 40 2 25 31 -12 21 -40 25 -58 7z
m46 -15 c2 -8 -6 -13 -22 -13 -19 0 -24 4 -19 15 6 18 34 16 41 -2z"/>
<path d="M5672 2148 c-27 -27 -7 -78 29 -78 10 0 21 5 24 10 4 7 -2 9 -18 5
-17 -5 -26 -2 -30 9 -5 13 1 16 28 16 38 0 40 2 25 31 -12 21 -40 25 -58 7z
m46 -15 c2 -8 -6 -13 -22 -13 -19 0 -24 4 -19 15 6 18 34 16 41 -2z"/>
<path d="M5765 2150 c-5 -9 -1 -10 14 -5 11 3 26 3 33 -2 9 -5 3 -9 -17 -13
-24 -4 -30 -10 -30 -30 0 -22 5 -25 35 -26 l36 -1 -6 41 c-4 35 -9 41 -32 44
-14 2 -29 -2 -33 -8z m55 -39 c0 -5 -7 -14 -15 -21 -18 -15 -42 1 -31 19 8 13
46 15 46 2z"/>
<path d="M5850 2115 c0 -25 5 -45 10 -45 6 0 10 15 10 33 0 18 5 38 12 45 9 9
7 12 -10 12 -19 0 -22 -5 -22 -45z"/>
<path d="M1797 2063 c215 -2 571 -2 790 0 219 1 43 2 -392 2 -434 0 -614 -1
-398 -2z"/>
<path d="M3998 2063 c166 -2 438 -2 605 0 166 1 30 2 -303 2 -333 0 -469 -1
-302 -2z"/>
<path d="M5988 2063 c12 -2 32 -2 45 0 12 2 2 4 -23 4 -25 0 -35 -2 -22 -4z"/>
<path d="M6428 2063 c204 -2 540 -2 745 0 204 1 37 2 -373 2 -410 0 -577 -1
-372 -2z"/>
<path d="M5078 1563 c23 -2 61 -2 85 0 23 2 4 4 -43 4 -47 0 -66 -2 -42 -4z"/>
<path d="M5061 1436 c-17 -20 -7 -33 35 -51 19 -8 34 -19 34 -25 0 -17 -31
-24 -51 -12 -26 16 -34 15 -19 -3 17 -21 67 -19 79 3 13 24 1 41 -34 50 -16 5
-30 13 -33 20 -6 18 28 27 50 13 16 -10 19 -10 16 1 -7 19 -62 22 -77 4z"/>
<path d="M5495 1426 c-5 -6 -8 -29 -5 -51 4 -30 10 -41 25 -43 14 -2 16 -1 7
6 -8 5 -12 25 -11 50 3 46 -1 56 -16 38z"/>
<path d="M5170 1375 c0 -25 5 -45 10 -45 6 0 10 20 10 45 0 25 -4 45 -10 45
-5 0 -10 -20 -10 -45z"/>
<path d="M5214 1406 c-3 -8 -4 -27 -2 -43 2 -23 8 -28 31 -28 15 1 26 -4 24
-10 -3 -5 -17 -9 -32 -8 -20 2 -25 -1 -18 -8 6 -6 21 -9 34 -7 22 3 24 9 27
58 3 56 3 56 -28 58 -19 1 -33 -3 -36 -12z m51 -15 c7 -23 -3 -51 -20 -51 -7
0 -16 7 -19 16 -9 23 2 54 19 54 8 0 16 -8 20 -19z"/>
<path d="M5300 1374 c0 -54 18 -59 22 -6 4 52 31 50 39 -3 l7 -40 -2 45 c-1
43 -2 45 -33 47 -33 1 -33 1 -33 -43z"/>
<path d="M5395 1410 c-5 -9 -1 -10 14 -5 11 3 26 3 33 -2 9 -5 3 -9 -17 -13
-24 -4 -30 -10 -30 -30 0 -22 5 -25 35 -26 l36 -1 -6 41 c-4 35 -9 41 -32 44
-14 2 -29 -2 -33 -8z m55 -39 c0 -5 -7 -14 -15 -21 -18 -15 -42 1 -31 19 8 13
46 15 46 2z"/>
<path d="M5542 1378 c3 -41 5 -43 36 -44 32 -1 32 -1 31 45 l-2 46 -6 -40 c-4
-27 -12 -41 -23 -43 -15 -3 -18 4 -18 37 0 23 -5 41 -11 41 -6 0 -9 -17 -7
-42z"/>
<path d="M5630 1375 c0 -25 5 -45 10 -45 6 0 10 15 10 33 0 18 5 38 12 45 9 9
7 12 -10 12 -19 0 -22 -5 -22 -45z"/>
<path d="M5702 1408 c-27 -27 -7 -78 29 -78 10 0 21 5 24 10 4 7 -2 9 -18 5
-17 -5 -26 -2 -30 9 -5 13 1 16 28 16 38 0 40 2 25 31 -12 21 -40 25 -58 7z
m46 -15 c2 -8 -6 -13 -22 -13 -19 0 -24 4 -19 15 6 18 34 16 41 -2z"/>
<path d="M213 1005 c0 -38 2 -53 4 -32 2 20 2 52 0 70 -2 17 -4 1 -4 -38z"/>
<path d="M5652 953 c346 -2 910 -2 1255 0 346 1 63 2 -627 2 -690 0 -973 -1
-628 -2z"/>
<path d="M5061 826 c-17 -20 -7 -33 35 -51 19 -8 34 -19 34 -25 0 -17 -31 -24
-51 -12 -26 16 -34 15 -19 -3 17 -21 67 -19 79 3 13 24 1 41 -34 50 -16 5 -30
13 -33 20 -6 18 28 27 50 13 16 -10 19 -10 16 1 -7 19 -62 22 -77 4z"/>
<path d="M5485 816 c-5 -6 -8 -29 -5 -51 4 -30 10 -41 25 -43 14 -2 16 -1 7 6
-8 5 -12 25 -11 50 3 46 -1 56 -16 38z"/>
<path d="M5160 765 c0 -25 5 -45 10 -45 6 0 10 20 10 45 0 25 -4 45 -10 45 -5
0 -10 -20 -10 -45z"/>
<path d="M5204 796 c-3 -8 -4 -27 -2 -43 2 -23 8 -28 31 -28 15 1 26 -4 24
-10 -3 -5 -17 -9 -32 -8 -20 2 -25 -1 -18 -8 6 -6 21 -9 34 -7 22 3 24 9 27
58 3 56 3 56 -28 58 -19 1 -33 -3 -36 -12z m51 -15 c7 -23 -3 -51 -20 -51 -7
0 -16 7 -19 16 -9 23 2 54 19 54 8 0 16 -8 20 -19z"/>
<path d="M5300 764 c0 -54 18 -59 22 -6 4 52 31 50 39 -3 l7 -40 -2 45 c-1 43
-2 45 -33 47 -33 1 -33 1 -33 -43z"/>
<path d="M5395 800 c-5 -9 -1 -10 14 -5 11 3 26 3 33 -2 9 -5 3 -9 -17 -13
-24 -4 -30 -10 -30 -30 0 -22 5 -25 35 -26 l36 -1 -6 41 c-4 35 -9 41 -32 44
-14 2 -29 -2 -33 -8z m55 -39 c0 -5 -7 -14 -15 -21 -18 -15 -42 1 -31 19 8 13
46 15 46 2z"/>
<path d="M5532 768 c3 -41 5 -43 36 -44 32 -1 32 -1 31 45 l-2 46 -6 -40 c-4
-27 -12 -41 -23 -43 -15 -3 -18 4 -18 37 0 23 -5 41 -11 41 -6 0 -9 -17 -7
-42z"/>
<path d="M5630 765 c0 -25 5 -45 10 -45 6 0 10 15 10 33 0 18 5 38 12 45 9 9
7 12 -10 12 -19 0 -22 -5 -22 -45z"/>
<path d="M5702 798 c-27 -27 -7 -78 29 -78 10 0 21 5 24 10 4 7 -2 9 -18 5
-17 -5 -26 -2 -30 9 -5 13 1 16 28 16 38 0 40 2 25 31 -12 21 -40 25 -58 7z
m46 -15 c2 -8 -6 -13 -22 -13 -19 0 -24 4 -19 15 6 18 34 16 41 -2z"/>
</g>
</svg>
